[Header]
FileType HTR
DataType HTRS
FileVersion 1
NumSegments 64
NumFrames 4
DataFrameRate 30
EulerRotationOrder ZYX
CalibrationUnits mm
RotationUnits Degrees
GlobalAxisofGravity Y
BoneLengthAxis Y
ScaleFactor 1.0
[SegmentNames&Hierarchy]
Hips	GLOBAL
Spine	Hips
Spine1	Spine
Spine2	Spine1
Neck	Spine2
Head	Neck
LeftEye	Head
RightEye	Head
LeftShoulder	Spine2
LeftArm	LeftShoulder
LeftForeArm	LeftArm
LeftHand	LeftForeArm
LeftHandThumb1	LeftHand
LeftHandThumb2	LeftHandThumb1
LeftHandThumb3	LeftHandThumb2
LeftHandThumb4	LeftHandThumb3
LeftHandIndex1	LeftHand
LeftHandIndex2	LeftHandIndex1
LeftHandIndex3	LeftHandIndex2
LeftHandIndex4	LeftHandIndex3
LeftHandMiddle1	LeftHand
LeftHandMiddle2	LeftHandMiddle1
LeftHandMiddle3	LeftHandMiddle2
LeftHandMiddle4	LeftHandMiddle3
LeftHandRing1	LeftHand
LeftHandRing2	LeftHandRing1
LeftHandRing3	LeftHandRing2
LeftHandRing4	LeftHandRing3
LeftHandPinky1	LeftHand
LeftHandPinky2	LeftHandPinky1
LeftHandPinky3	LeftHandPinky2
LeftHandPinky4	LeftHandPinky3
RightShoulder	Spine2
RightArm	RightShoulder
RightForeArm	RightArm
RightHand	RightForeArm
RightHandPinky1	RightHand
RightHandPinky2	RightHandPinky1
RightHandPinky3	RightHandPinky2
RightHandPinky4	RightHandPinky3
RightHandRing1	RightHand
RightHandRing2	RightHandRing1
RightHandRing3	RightHandRing2
RightHandRing4	RightHandRing3
RightHandMiddle1	RightHand
RightHandMiddle2	RightHandMiddle1
RightHandMiddle3	RightHandMiddle2
RightHandMiddle4	RightHandMiddle3
RightHandIndex1	RightHand
RightHandIndex2	RightHandIndex1
RightHandIndex3	RightHandIndex2
RightHandIndex4	RightHandIndex3
RightHandThumb1	RightHand
RightHandThumb2	RightHandThumb1
RightHandThumb3	RightHandThumb2
RightHandThumb4	RightHandThumb3
LeftUpLeg	Hips
LeftLeg	LeftUpLeg
LeftFoot	LeftLeg
LeftToeBase	LeftFoot
RightUpLeg	Hips
RightLeg	RightUpLeg
RightFoot	RightLeg
RightToeBase	RightFoot
[BasePosition]
Hips	0	0	0	0	0	0	1
Spine	0	0	0	0	0	0	1
Spine1	0	0	0	0	0	0	1
Spine2	0	0	0	0	0	0	1
Neck	0	0	0	0	0	0	1
Head	0	0	0	0	0	0	1
LeftEye	0	0	0	0	0	0	1
RightEye	0	0	0	0	0	0	1
LeftShoulder	0	0	0	0	0	0	1
LeftArm	0	0	0	0	0	0	1
LeftForeArm	0	0	0	0	0	0	1
LeftHand	0	0	0	0	0	0	1
LeftHandThumb1	0	0	0	0	0	0	1
LeftHandThumb2	0	0	0	0	0	0	1
LeftHandThumb3	0	0	0	0	0	0	1
LeftHandThumb4	0	0	0	0	0	0	1
LeftHandIndex1	0	0	0	0	0	0	1
LeftHandIndex2	0	0	0	0	0	0	1
LeftHandIndex3	0	0	0	0	0	0	1
LeftHandIndex4	0	0	0	0	0	0	1
LeftHandMiddle1	0	0	0	0	0	0	1
LeftHandMiddle2	0	0	0	0	0	0	1
LeftHandMiddle3	0	0	0	0	0	0	1
LeftHandMiddle4	0	0	0	0	0	0	1
LeftHandRing1	0	0	0	0	0	0	1
LeftHandRing2	0	0	0	0	0	0	1
LeftHandRing3	0	0	0	0	0	0	1
LeftHandRing4	0	0	0	0	0	0	1
LeftHandPinky1	0	0	0	0	0	0	1
LeftHandPinky2	0	0	0	0	0	0	1
LeftHandPinky3	0	0	0	0	0	0	1
LeftHandPinky4	0	0	0	0	0	0	1
RightShoulder	0	0	0	0	0	0	1
RightArm	0	0	0	0	0	0	1
RightForeArm	0	0	0	0	0	0	1
RightHand	0	0	0	0	0	0	1
RightHandPinky1	0	0	0	0	0	0	1
RightHandPinky2	0	0	0	0	0	0	1
RightHandPinky3	0	0	0	0	0	0	1
RightHandPinky4	0	0	0	0	0	0	1
RightHandRing1	0	0	0	0	0	0	1
RightHandRing2	0	0	0	0	0	0	1
RightHandRing3	0	0	0	0	0	0	1
RightHandRing4	0	0	0	0	0	0	1
RightHandMiddle1	0	0	0	0	0	0	1
RightHandMiddle2	0	0	0	0	0	0	1
RightHandMiddle3	0	0	0	0	0	0	1
RightHandMiddle4	0	0	0	0	0	0	1
RightHandIndex1	0	0	0	0	0	0	1
RightHandIndex2	0	0	0	0	0	0	1
RightHandIndex3	0	0	0	0	0	0	1
RightHandIndex4	0	0	0	0	0	0	1
RightHandThumb1	0	0	0	0	0	0	1
RightHandThumb2	0	0	0	0	0	0	1
RightHandThumb3	0	0	0	0	0	0	1
RightHandThumb4	0	0	0	0	0	0	1
LeftUpLeg	0	0	0	0	0	0	1
LeftLeg	0	0	0	0	0	0	1
LeftFoot	0	0	0	0	0	0	1
LeftToeBase	0	0	0	0	0	0	1
RightUpLeg	0	0	0	0	0	0	1
RightLeg	0	0	0	0	0	0	1
RightFoot	0	0	0	0	0	0	1
RightToeBase	0	0	0	0	0	0	1
[Hips]
90	-87.78972626	935.8111572	-75.13667297	19.38355064	-49.52603912	-27.08503342	1.0
91	-90.81089783	961.737793	-54.82983017	15.83062363	-45.8461647	-21.24948692	1.0
92	-90.0753479	981.2504883	-28.6319561	11.70702648	-41.28343964	-15.96336365	1.0
93	-85.37165833	989.0539551	1.129286051	7.746515751	-35.56590271	-11.51447964	1.0
[Spine]
90	0	101.8159943	1.315000057	11.34634018	-11.28330421	-9.098742485	1.0
91	0	101.8159943	1.315000057	8.744810104	-12.16196728	-10.93037701	1.0
92	0	101.8159943	1.315000057	8.607340813	-14.19007301	-11.3633604	1.0
93	0	101.8159943	1.315000057	9.713413239	-17.05777168	-10.63925552	1.0
[Spine1]
90	0	100.8349991	-10.00800037	1.874221206	-2.03420186	6.852610588	1.0
91	0	100.8349991	-10.00800037	2.249501705	-2.083013535	5.591660976	1.0
92	0	100.8349991	-10.00800037	1.513799071	-2.21352911	2.979015589	1.0
93	0	100.8349991	-10.00800037	0.5463725924	-2.481361389	0.3585256636	1.0
[Spine2]
90	0	91	-13.73399925	2.083660126	-1.907524467	6.82694149	1.0
91	0	91	-13.73399925	2.4368577	-1.986740351	5.546968937	1.0
92	0	91	-13.73399925	1.643824935	-2.153152704	2.952919722	1.0
93	0	91	-13.73399925	0.6005596519	-2.467120886	0.373200655	1.0
[Neck]
90	0	166.7169952	-25.16200066	-8.245457649	7.057067871	2.030504465	1.0
91	0	166.7169952	-25.16200066	-7.887428761	6.723165035	2.885811806	1.0
92	0	166.7169952	-25.16200066	-6.186510563	6.269983292	5.069514751	1.0
93	0	166.7169952	-25.16200066	-4.39479208	5.957515717	6.157603264	1.0
[Head]
90	0	96.17900085	16.84999847	-18.94894409	36.60666656	0.5031390786	1.0
91	0	96.17900085	16.84999847	-17.5237999	35.47829819	-0.292760402	1.0
92	0	96.17900085	16.84999847	-14.80457878	35.1392746	-1.17592299	1.0
93	0	96.17900085	16.84999847	-12.18173599	35.16921997	-3.007414579	1.0
[LeftEye]
90	30.6760006	64.09500122	92.83599854	0	0	0	1.0
91	30.6760006	64.09500122	92.83599854	0	0	0	1.0
92	30.6760006	64.09500122	92.83599854	0	0	0	1.0
93	30.6760006	64.09500122	92.83599854	0	0	0	1.0
[RightEye]
90	-30.6760006	64.09500122	92.83499908	0	0	0	1.0
91	-30.6760006	64.09500122	92.83499908	0	0	0	1.0
92	-30.6760006	64.09500122	92.83499908	0	0	0	1.0
93	-30.6760006	64.09500122	92.83499908	0	0	0	1.0
[LeftShoulder]
90	45.70400238	109.4599991	-26.28000069	0.08982889354	-1.944050312	7.913129807	1.0
91	45.70400238	109.4599991	-26.28000069	0.335416913	-4.499834061	4.85478878	1.0
92	45.70400238	109.4599991	-26.28000069	0.3916422725	-6.189274788	4.997373104	1.0
93	45.70400238	109.4599991	-26.28000069	0.6777122021	-6.550500393	2.222284079	1.0
[LeftArm]
90	105.923996	-5.24600029	-22.32099915	-10.20898819	-1.692558765	14.68512917	1.0
91	105.923996	-5.24600029	-22.32099915	14.75263977	-5.470133781	11.88286495	1.0
92	105.923996	-5.24600029	-22.32099915	34.96938324	-5.853802681	-0.6206740737	1.0
93	105.923996	-5.24600029	-22.32099915	49.8292923	-1.660337806	-11.1292429	1.0
[LeftForeArm]
90	278.414978	-0.0009999999311	0	2.827383014e-06	-30.3905201	-0.0002083737199	1.0
91	278.414978	-0.0009999999311	0	2.631132475e-06	-24.36915398	-0.000207344041	1.0
92	278.414978	-0.0009999999311	0	7.607659427e-07	-18.89044571	-0.0002052010241	1.0
93	278.414978	-0.0009999999311	0	-5.940183655e-06	-17.77412605	-0.000196007255	1.0
[LeftHand]
90	283.2879944	0	0	18.09348869	10.46537399	23.7010994	1.0
91	283.2879944	0	0	15.76311111	13.09957504	12.23450279	1.0
92	283.2879944	0	0	12.86068249	15.88541698	0.4128375053	1.0
93	283.2879944	0	0	9.991293907	17.78347588	-9.744163513	1.0
[LeftHandThumb1]
90	24.6609993	-15.75	26.8239994	-2.08480072	-4.97968626	-2.839404583	1.0
91	24.6609993	-15.75	26.8239994	-1.746299863	-5.952368259	-4.32175684	1.0
92	24.6609993	-15.75	26.8239994	-1.791672468	-6.908568859	-5.224993706	1.0
93	24.6609993	-15.75	26.8239994	-2.101690531	-7.773264408	-5.653579235	1.0
[LeftHandThumb2]
90	32.29800034	-18.64699936	18.64699936	1.212599039	-0.185163632	-1.064301729	1.0
91	32.29800034	-18.64699936	18.64699936	1.213744998	-0.1834107786	-1.071955323	1.0
92	32.29800034	-18.64699936	18.64699936	1.213772535	-0.1829005629	-1.073738575	1.0
93	32.29800034	-18.64699936	18.64699936	1.212591171	-0.1841677874	-1.068337917	1.0
[LeftHandThumb3]
90	26.52600098	-15.31499958	15.31499958	-5.739832401	-6.336611748	4.235705376	1.0
91	26.52600098	-15.31499958	15.31499958	-5.64257431	-6.168591022	4.183808327	1.0
92	26.52600098	-15.31499958	15.31499958	-5.453662872	-5.894131184	4.109745026	1.0
93	26.52600098	-15.31499958	15.31499958	-5.177620888	-5.520285606	4.019872189	1.0
[LeftHandThumb4]
90	19.54599953	-11.28499985	11.28499985	0	0	0	1.0
91	19.54599953	-11.28499985	11.28499985	0	0	0	1.0
92	19.54599953	-11.28499985	11.28499985	0	0	0	1.0
93	19.54599953	-11.28499985	11.28499985	0	0	0	1.0
[LeftHandIndex1]
90	91.09299469	-5.170999527	22.60099792	-0.4716382623	-2.706144571	21.02088356	1.0
91	91.09299469	-5.170999527	22.60099792	-0.1070918515	-3.770155907	10.14634895	1.0
92	91.09299469	-5.170999527	22.60099792	0.004133309703	-4.560934544	-2.00951004	1.0
93	91.09299469	-5.170999527	22.60099792	-0.1919977516	-4.977118492	-14.54107571	1.0
[LeftHandIndex2]
90	36.76399994	0	0	-2.44714538e-05	0.01740719564	-0.1447711587	1.0
91	36.76399994	0	0	-5.009522647e-05	0.02648704872	-0.2203270495	1.0
92	36.76399994	0	0	-5.778718696e-05	0.02766508423	-0.2301979214	1.0
93	36.76399994	0	0	-2.767685146e-05	0.02100251243	-0.1747329682	1.0
[LeftHandIndex3]
90	28.83100128	0	0	-0.02729715221	0.61262393	-5.102705002	1.0
91	28.83100128	0	0	-0.03181462362	0.661254406	-5.509001732	1.0
92	28.83100128	0	0	-0.03623302281	0.7055720687	-5.879514694	1.0
93	28.83100128	0	0	-0.04027430341	0.7438288927	-6.199578285	1.0
[LeftHandIndex4]
90	23.92700005	0	0	0	0	0	1.0
91	23.92700005	0	0	0	0	0	1.0
92	23.92700005	0	0	0	0	0	1.0
93	23.92700005	0	0	0	0	0	1.0
[LeftHandMiddle1]
90	95.33399963	0	0	-0.08497904986	0.5224202275	8.698291779	1.0
91	95.33399963	0	0	-0.003498060163	0.08178665489	-0.5459225178	1.0
92	95.33399963	0	0	-0.103989765	-0.3146371245	-9.653441429	1.0
93	95.33399963	0	0	-0.3456704915	-0.5906347036	-18.23748207	1.0
[LeftHandMiddle2]
90	36.98199844	0	0	-0.0003843233571	0.04340437055	-0.3611994982	1.0
91	36.98199844	0	0	-0.009047929198	0.3528321981	-2.936154842	1.0
92	36.98199844	0	0	-0.05491076782	0.860362649	-7.175588608	1.0
93	36.98199844	0	0	-0.1354837269	1.354938269	-11.34817123	1.0
[LeftHandMiddle3]
90	29.50900078	0	0	-0.0275772661	0.6155816913	-5.127442837	1.0
91	29.50900078	0	0	-0.03576738387	0.7010464668	-5.841601372	1.0
92	29.50900078	0	0	-0.04413650185	0.778291285	-6.488026619	1.0
93	29.50900078	0	0	-0.05193652958	0.8441187143	-7.03950119	1.0
[LeftHandMiddle4]
90	28.3390007	0	0	0	0	0	1.0
91	28.3390007	0	0	0	0	0	1.0
92	28.3390007	0	0	0	0	0	1.0
93	28.3390007	0	0	0	0	0	1.0
[LeftHandRing1]
90	91.04499817	-0.4390000105	-18.65100098	-0.006357951555	3.458619595	-2.763673067	1.0
91	91.04499817	-0.4390000105	-18.65100098	-0.1635866463	3.366889	-12.55320072	1.0
92	91.04499817	-0.4390000105	-18.65100098	-0.4514278173	3.126559258	-20.73278236	1.0
93	91.04499817	-0.4390000105	-18.65100098	-0.7704342604	2.824232578	-27.32963371	1.0
[LeftHandRing2]
90	31.54000092	0	0	-0.01662212238	0.4319595098	-3.597220659	1.0
91	31.54000092	0	0	-0.08415616304	1.073324919	-8.96538353	1.0
92	31.54000092	0	0	-0.2014346123	1.651066542	-13.8728323	1.0
93	31.54000092	0	0	-0.3518721759	2.170336723	-18.3775692	1.0
[LeftHandRing3]
90	29.37700081	0	0	-0.04289135337	0.76737535	-6.396727085	1.0
91	29.37700081	0	0	-0.05060904846	0.8334572911	-6.950157166	1.0
92	29.37700081	0	0	-0.0574535653	0.8876084685	-7.404151917	1.0
93	29.37700081	0	0	-0.06311539561	0.9302541614	-7.762125492	1.0
[LeftHandRing4]
90	26.47500038	0	0	0	0	0	1.0
91	26.47500038	0	0	0	0	0	1.0
92	26.47500038	0	0	0	0	0	1.0
93	26.47500038	0	0	0	0	0	1.0
[LeftHandPinky1]
90	80.77799988	-4.887000084	-38.06099701	-0.1656833589	10.98549747	-15.11232185	1.0
91	80.77799988	-4.887000084	-38.06099701	-0.7753369808	9.361956596	-27.97213364	1.0
92	80.77799988	-4.887000084	-38.06099701	-1.412045479	7.427279472	-37.34137344	1.0
93	80.77799988	-4.887000084	-38.06099701	-1.902725101	5.478890419	-43.64632416	1.0
[LeftHandPinky2]
90	36	0	0	0.1459864676	-3.827533007	-2.376587629	1.0
91	36	0	0	0.3088336885	-3.513145685	-4.913725376	1.0
92	36	0	0	0.4924574494	-3.109416485	-8.089009285	1.0
93	36	0	0	0.67100209	-2.643065929	-11.66265011	1.0
[LeftHandPinky3]
90	21.14200211	0	0	-0.03073417768	0.6499974132	-5.414795876	1.0
91	21.14200211	0	0	-0.03384806588	0.6821272969	-5.683444977	1.0
92	21.14200211	0	0	-0.03573327139	0.7006969452	-5.838690758	1.0
93	21.14200211	0	0	-0.03649299219	0.7081190944	-5.900767803	1.0
[LeftHandPinky4]
90	19.75699997	0	0	0	0	0	1.0
91	19.75699997	0	0	0	0	0	1.0
92	19.75699997	0	0	0	0	0	1.0
93	19.75699997	0	0	0	0	0	1.0
[RightShoulder]
90	-45.70000076	109.4620056	-26.28000069	-0.6878461838	-6.910624981	13.11739349	1.0
91	-45.70000076	109.4620056	-26.28000069	-0.5246939659	-7.013999939	7.275749207	1.0
92	-45.70000076	109.4620056	-26.28000069	-0.1509453058	-5.028783321	2.206426859	1.0
93	-45.70000076	109.4620056	-26.28000069	0.07025930285	-1.772837281	-4.078120708	1.0
[RightArm]
90	-105.9280014	-5.248000145	-22.32099915	-31.97477341	-9.552394867	21.10040092	1.0
91	-105.9280014	-5.248000145	-22.32099915	-25.72338104	-8.569689751	13.22216892	1.0
92	-105.9280014	-5.248000145	-22.32099915	-13.11032963	-9.485655785	1.987924218	1.0
93	-105.9280014	-5.248000145	-22.32099915	-1.600162506	-9.593054771	-10.08895588	1.0
[RightForeArm]
90	-278.414978	0	0	-1.273662747e-05	82.59098053	-3.288925654e-05	1.0
91	-278.414978	0	0	-6.856279015e-06	82.78960419	-1.353981497e-05	1.0
92	-278.414978	0	0	2.183824654e-05	85.23750305	8.242898184e-05	1.0
93	-278.414978	0	0	-4.555474879e-05	90.64817047	-1.117943975e-05	1.0
[RightHand]
90	-283.2879944	0	0.0009999999311	30.70656013	-8.481937408	-15.33131886	1.0
91	-283.2879944	0	0.0009999999311	32.1689682	-19.17836761	-9.222230911	1.0
92	-283.2879944	0	0.0009999999311	31.63539886	-28.60710907	-0.7537469864	1.0
93	-283.2879944	0	0.0009999999311	28.34025955	-33.55025482	9.06575489	1.0
[RightHandPinky1]
90	-80.76699829	-4.885000229	-38.06000137	-0.2994604111	-17.10051727	21.80541611	1.0
91	-80.76699829	-4.885000229	-38.06000137	-1.823007345	-19.21453667	44.35874939	1.0
92	-80.76699829	-4.885000229	-38.06000137	-3.291842699	-19.23088646	59.17525482	1.0
93	-80.76699829	-4.885000229	-38.06000137	-4.573381901	-18.05796623	70.51361847	1.0
[RightHandPinky2]
90	-36	0	0.0009999999311	-0.5555894971	-2.713309288	23.00924492	1.0
91	-36	0	0.0009999999311	-0.9740521312	-3.546880484	30.71656418	1.0
92	-36	0	0.0009999999311	-1.355342388	-4.120441914	36.41423798	1.0
93	-36	0	0.0009999999311	-1.732071042	-4.584873199	41.36654663	1.0
[RightHandPinky3]
90	-21.14200211	0	0	-0.04053052887	0.7503543496	-6.193457603	1.0
91	-21.14200211	0	0	-0.0347944051	0.69488132	-5.733962536	1.0
92	-21.14200211	0	0	-0.0328948535	0.6758060455	-5.575843334	1.0
93	-21.14200211	0	0	-0.03380249068	0.6849614978	-5.651762486	1.0
[RightHandPinky4]
90	-19.75699997	0	0	0	0	0	1.0
91	-19.75699997	0	0	0	0	0	1.0
92	-19.75699997	0	0	0	0	0	1.0
93	-19.75699997	0	0	0	0	0	1.0
[RightHandRing1]
90	-91.03599548	-0.4390000105	-18.65100098	-0.05365245044	-5.699411392	6.764477253	1.0
91	-91.03599548	-0.4390000105	-18.65100098	-0.763333559	-7.883676052	27.43123817	1.0
92	-91.03599548	-0.4390000105	-18.65100098	-2.02544713	-8.929461479	44.84137344	1.0
93	-91.03599548	-0.4390000105	-18.65100098	-3.130157471	-8.923069954	56.82352066	1.0
[RightHandRing2]
90	-31.54000092	0	0	-0.0307221394	-0.6333815455	5.226792812	1.0
91	-31.54000092	0	0	-0.1082024574	-1.221949816	10.11997414	1.0
92	-31.54000092	0	0	-0.2216980159	-1.739530921	14.48871899	1.0
93	-31.54000092	0	0	-0.3539578021	-2.187172174	18.3403492	1.0
[RightHandRing3]
90	-29.37700081	0	0	1.113611102	0.294786483	-2.424001455	1.0
91	-29.37700081	0	0	1.863461494	0.1285515577	-1.058069825	1.0
92	-29.37700081	0	0	2.093613386	0.0253627263	-0.2090748399	1.0
93	-29.37700081	0	0	1.860650182	-0.02779873088	0.22864905	1.0
[RightHandRing4]
90	-26.47500038	0	0	0	0	0	1.0
91	-26.47500038	0	0	0	0	0	1.0
92	-26.47500038	0	0	0	0	0	1.0
93	-26.47500038	0	0	0	0	0	1.0
[RightHandMiddle1]
90	-95.32500458	0	0	-0.03630177677	4.280975342	-4.135856628	1.0
91	-95.32500458	0	0	-0.2632450163	2.134600401	16.27046585	1.0
92	-95.32500458	0	0	-1.214986205	0.4867475033	34.40602493	1.0
93	-95.32500458	0	0	-2.382136345	-0.5191447139	49.10329437	1.0
[RightHandMiddle2]
90	-36.98199844	0	0	-0.01417200454	-0.4258132279	3.51067853	1.0
91	-36.98199844	0	0	-0.05162711442	-0.8458447456	6.985508919	1.0
92	-36.98199844	0	0	-0.09906955808	-1.168084383	9.669739723	1.0
93	-36.98199844	0	0	-0.1446098387	-1.410495877	11.70281601	1.0
[RightHandMiddle3]
90	-29.50900078	0	0	1.427578092	0.04300289601	-0.3692390025	1.0
91	-29.50900078	0	0	1.472088337	-0.1518638432	1.233855247	1.0
92	-29.50900078	0	0	1.076197028	-0.2369749397	1.935364723	1.0
93	-29.50900078	0	0	0.3982460499	-0.240426898	1.964369774	1.0
[RightHandMiddle4]
90	-28.3390007	0	0.0009999999311	0	0	0	1.0
91	-28.3390007	0	0.0009999999311	0	0	0	1.0
92	-28.3390007	0	0.0009999999311	0	0	0	1.0
93	-28.3390007	0	0.0009999999311	0	0	0	1.0
[RightHandIndex1]
90	-91.08300018	-5.167999744	22.60099792	-0.009398059919	14.56159782	-11.47271824	1.0
91	-91.08300018	-5.167999744	22.60099792	0.06230926886	12.3150301	11.19777584	1.0
92	-91.08300018	-5.167999744	22.60099792	-0.6604002118	10.43164635	28.54459572	1.0
93	-91.08300018	-5.167999744	22.60099792	-2.066583395	8.50990963	46.66425705	1.0
[RightHandIndex2]
90	-36.76399994	0	0	-0.008427890018	-0.3433125317	2.829143047	1.0
91	-36.76399994	0	0	-0.01175080799	-0.4041675031	3.331256866	1.0
92	-36.76399994	0	0	-0.01100107841	-0.3918147981	3.229320049	1.0
93	-36.76399994	0	0	-0.007951711304	-0.3314631581	2.731503487	1.0
[RightHandIndex3]
90	-28.83100128	0	0	0.0003379999835	-0.007906083949	0.06522737443	1.0
91	-28.83100128	0	0	-0.0009237807244	-0.1134577617	0.934664011	1.0
92	-28.83100128	0	0	-0.0003668824793	-0.08572823554	0.7061789036	1.0
93	-28.83100128	0	0	-0.0002486273006	0.03331075981	-0.274359107	1.0
[RightHandIndex4]
90	-23.92700005	0	0	0	0	0	1.0
91	-23.92700005	0	0	0	0	0	1.0
92	-23.92700005	0	0	0	0	0	1.0
93	-23.92700005	0	0	0	0	0	1.0
[RightHandThumb1]
90	-24.64799881	-15.72700024	26.82600021	4.130746841	-10.76678753	-6.102729321	1.0
91	-24.64799881	-15.72700024	26.82600021	5.418970108	-10.26767445	-3.873924255	1.0
92	-24.64799881	-15.72700024	26.82600021	6.377649307	-9.662244797	-2.482270956	1.0
93	-24.64799881	-15.72700024	26.82600021	7.082037449	-9.109559059	-1.188193917	1.0
[RightHandThumb2]
90	-32.29800034	-18.64699936	18.64699936	4.731780529	-8.810750008	0.6610412002	1.0
91	-32.29800034	-18.64699936	18.64699936	7.01241827	-16.44472122	-0.6500756741	1.0
92	-32.29800034	-18.64699936	18.64699936	9.576611519	-24.06837082	-2.58703661	1.0
93	-32.29800034	-18.64699936	18.64699936	12.33337975	-31.00901222	-5.030952454	1.0
[RightHandThumb3]
90	-26.52600098	-15.31399918	15.31399918	-0.6073762178	-3.573520184	-3.656540155	1.0
91	-26.52600098	-15.31399918	15.31399918	3.80179739	-10.87952614	-4.936505318	1.0
92	-26.52600098	-15.31399918	15.31399918	8.319184303	-16.70970154	-7.147462368	1.0
93	-26.52600098	-15.31399918	15.31399918	12.43166065	-20.6405468	-9.61273098	1.0
[RightHandThumb4]
90	-19.54599953	-11.28499985	11.28499985	0	0	0	1.0
91	-19.54599953	-11.28499985	11.28499985	0	0	0	1.0
92	-19.54599953	-11.28499985	11.28499985	0	0	0	1.0
93	-19.54599953	-11.28499985	11.28499985	0	0	0	1.0
[LeftUpLeg]
90	82.07800293	-67.51699829	-15.99599934	-24.04924011	18.31105042	30.2126255	1.0
91	82.07800293	-67.51699829	-15.99599934	-24.62306786	17.29527283	28.15035057	1.0
92	82.07800293	-67.51699829	-15.99599934	-24.49832726	21.15842819	21.3150444	1.0
93	82.07800293	-67.51699829	-15.99599934	-23.6365757	23.65257263	14.03640079	1.0
[LeftLeg]
90	0	-443.7049866	2.845999956	59.3616066	-9.170678139	-4.56727314	1.0
91	0	-443.7049866	2.845999956	54.02767563	2.688600779	-6.632555008	1.0
92	0	-443.7049866	2.845999956	48.20336914	8.844704628	-4.160411358	1.0
93	0	-443.7049866	2.845999956	43.11095428	8.20535183	-5.622060299	1.0
[LeftFoot]
90	0	-444.2789917	-29.8219986	-16.55331421	-10.71267986	-17.37784576	1.0
91	0	-444.2789917	-29.8219986	-15.96755791	-0.0162993446	-17.11824989	1.0
92	0	-444.2789917	-29.8219986	-14.34413242	6.763621807	-10.37280273	1.0
93	0	-444.2789917	-29.8219986	-14.11319923	15.2942276	-2.506209135	1.0
[LeftToeBase]
90	0	-87.28699493	107.1060028	-10.92173767	0.5975313783	3.775461435	1.0
91	0	-87.28699493	107.1060028	-8.545179367	0.3237537742	2.638931513	1.0
92	0	-87.28699493	107.1060028	-6.173277855	0.2154067159	2.700782299	1.0
93	0	-87.28699493	107.1060028	-4.709173679	0.04248891771	0.6008588076	1.0
[RightUpLeg]
90	-82.07800293	-67.51699829	-15.99599934	-1.420347452	-0.9562854767	3.394268036	1.0
91	-82.07800293	-67.51699829	-15.99599934	-0.08243237436	-1.753186345	1.270518661	1.0
92	-82.07800293	-67.51699829	-15.99599934	1.677346826	-3.64733696	-1.705052614	1.0
93	-82.07800293	-67.51699829	-15.99599934	2.094541073	-3.913634777	-4.519967556	1.0
[RightLeg]
90	0	-443.7049866	2.861999989	32.93681717	-10.27458286	-4.118850708	1.0
91	0	-443.7049866	2.861999989	28.10963058	-8.839808464	-3.821995497	1.0
92	0	-443.7049866	2.861999989	26.17501068	-8.015583992	-4.707455158	1.0
93	0	-443.7049866	2.861999989	29.62911224	-6.667003632	-6.558764458	1.0
[RightFoot]
90	0	-444.2770081	-29.83799934	-21.65852165	-0.6974862218	22.70742226	1.0
91	0	-444.2770081	-29.83799934	-11.87469006	-7.686207771	26.69230652	1.0
92	0	-444.2770081	-29.83799934	-2.514496088	-11.69015503	27.22367668	1.0
93	0	-444.2770081	-29.83799934	5.389706135	-11.59886456	25.89981842	1.0
[RightToeBase]
90	0	-87.28699493	107.1060028	-4.790639877	-0.05815870687	-0.2509598136	1.0
91	0	-87.28699493	107.1060028	-11.938941	-0.3517850935	-1.833860159	1.0
92	0	-87.28699493	107.1060028	-15.58056641	-0.2348688841	-1.018202066	1.0
93	0	-87.28699493	107.1060028	-17.80954742	0.6149582863	1.985980749	1.0
[EndOfFile]
